<svg width="20" height="21" viewBox="0 0 20 21" fill="none" xmlns="http://www.w3.org/2000/svg">
<g id="account_balance_wallet">
<mask id="mask0_1_1518" style="mask-type:alpha" maskUnits="userSpaceOnUse" x="0" y="0" width="20" height="21">
<rect id="Bounding box" y="0.5" width="20" height="20" fill="#D9D9D9"/>
</mask>
<g mask="url(#mask0_1_1518)">
<path id="account_balance_wallet_2" d="M4.5 17.5C4.0875 17.5 3.73437 17.3531 3.44062 17.0594C3.14687 16.7656 3 16.4125 3 16V5C3 4.5875 3.14687 4.23438 3.44062 3.94063C3.73437 3.64688 4.0875 3.5 4.5 3.5H15.5C15.9125 3.5 16.2656 3.64688 16.5594 3.94063C16.8531 4.23438 17 4.5875 17 5V7.04167H15.5V5H4.5V16H15.5V13.9375H17V16C17 16.4125 16.8531 16.7656 16.5594 17.0594C16.2656 17.3531 15.9125 17.5 15.5 17.5H4.5ZM10.5 14.5C10.0875 14.5 9.73438 14.3531 9.44063 14.0594C9.14688 13.7656 9 13.4125 9 13V8C9 7.5875 9.14688 7.23438 9.44063 6.94063C9.73438 6.64688 10.0875 6.5 10.5 6.5H16.5C16.9125 6.5 17.2656 6.64688 17.5594 6.94063C17.8531 7.23438 18 7.5875 18 8V13C18 13.4125 17.8531 13.7656 17.5594 14.0594C17.2656 14.3531 16.9125 14.5 16.5 14.5H10.5ZM16.5 13V8H10.5V13H16.5ZM13.5 11.75C13.8472 11.75 14.1424 11.6285 14.3854 11.3854C14.6285 11.1424 14.75 10.8472 14.75 10.5C14.75 10.1528 14.6285 9.85764 14.3854 9.61458C14.1424 9.37153 13.8472 9.25 13.5 9.25C13.1528 9.25 12.8576 9.37153 12.6146 9.61458C12.3715 9.85764 12.25 10.1528 12.25 10.5C12.25 10.8472 12.3715 11.1424 12.6146 11.3854C12.8576 11.6285 13.1528 11.75 13.5 11.75Z" fill="white" fill-opacity="0.6"/>
</g>
</g>
</svg>
