<svg width="20" height="21" viewBox="0 0 20 21" fill="none" xmlns="http://www.w3.org/2000/svg">
<g id="account_circle">
<mask id="mask0_1_1565" style="mask-type:alpha" maskUnits="userSpaceOnUse" x="0" y="0" width="20" height="21">
<rect id="Bounding box" y="0.5" width="20" height="20" fill="#D9D9D9"/>
</mask>
<g mask="url(#mask0_1_1565)">
<path id="account_circle_2" d="M4.9375 14.5625C5.6875 14.0347 6.48958 13.6424 7.34375 13.3854C8.19792 13.1285 9.08333 13 10 13C10.9167 13 11.8021 13.1285 12.6562 13.3854C13.5104 13.6424 14.3125 14.0347 15.0625 14.5625C15.5486 13.9931 15.9097 13.3611 16.1458 12.6667C16.3819 11.9722 16.5 11.25 16.5 10.5C16.5 8.69896 15.8665 7.16536 14.5994 5.89921C13.3323 4.63307 11.7976 4 9.99521 4C8.19285 4 6.65972 4.63307 5.39583 5.89921C4.13194 7.16536 3.5 8.69896 3.5 10.5C3.5 11.25 3.61806 11.9722 3.85417 12.6667C4.09028 13.3611 4.45139 13.9931 4.9375 14.5625ZM10 12C9.16667 12 8.45833 11.7083 7.875 11.125C7.29167 10.5417 7 9.83333 7 9C7 8.16667 7.29167 7.45833 7.875 6.875C8.45833 6.29167 9.16667 6 10 6C10.8333 6 11.5417 6.29167 12.125 6.875C12.7083 7.45833 13 8.16667 13 9C13 9.83333 12.7083 10.5417 12.125 11.125C11.5417 11.7083 10.8333 12 10 12ZM10.0058 18.5C8.9047 18.5 7.86806 18.2917 6.89583 17.875C5.92361 17.4583 5.07292 16.8854 4.34375 16.1562C3.61458 15.4271 3.04167 14.5767 2.625 13.605C2.20833 12.6334 2 11.5952 2 10.4905C2 9.38571 2.20833 8.35069 2.625 7.38542C3.04167 6.42014 3.61458 5.57292 4.34375 4.84375C5.07292 4.11458 5.92332 3.54167 6.89496 3.125C7.86661 2.70833 8.90481 2.5 10.0095 2.5C11.1143 2.5 12.1493 2.70833 13.1146 3.125C14.0799 3.54167 14.9271 4.11458 15.6562 4.84375C16.3854 5.57292 16.9583 6.42169 17.375 7.39008C17.7917 8.35849 18 9.39321 18 10.4943C18 11.5953 17.7917 12.6319 17.375 13.6042C16.9583 14.5764 16.3854 15.4271 15.6562 16.1562C14.9271 16.8854 14.0783 17.4583 13.1099 17.875C12.1415 18.2917 11.1068 18.5 10.0058 18.5ZM10 17C10.7222 17 11.4167 16.8854 12.0833 16.6562C12.75 16.4271 13.375 16.0903 13.9583 15.6458C13.3611 15.2708 12.7292 14.9861 12.0625 14.7917C11.3958 14.5972 10.7083 14.5 10 14.5C9.29167 14.5 8.60069 14.5938 7.92708 14.7812C7.25347 14.9688 6.625 15.2569 6.04167 15.6458C6.625 16.0903 7.25 16.4271 7.91667 16.6562C8.58333 16.8854 9.27778 17 10 17ZM10 10.5C10.4167 10.5 10.7708 10.3542 11.0625 10.0625C11.3542 9.77083 11.5 9.41667 11.5 9C11.5 8.58333 11.3542 8.22917 11.0625 7.9375C10.7708 7.64583 10.4167 7.5 10 7.5C9.58333 7.5 9.22917 7.64583 8.9375 7.9375C8.64583 8.22917 8.5 8.58333 8.5 9C8.5 9.41667 8.64583 9.77083 8.9375 10.0625C9.22917 10.3542 9.58333 10.5 10 10.5Z" fill="white"/>
</g>
</g>
</svg>
