<svg width="27" height="25" viewBox="0 0 27 25" fill="none" xmlns="http://www.w3.org/2000/svg">
<path d="M19.6949 12.7517L11.9806 20.466C11.8709 20.5682 11.7258 20.6238 11.5759 20.6212C11.426 20.6185 11.283 20.5578 11.177 20.4518C11.071 20.3458 11.0103 20.2028 11.0077 20.0529C11.005 19.903 11.0607 19.758 11.1629 19.6483L18.4673 12.3428L11.1629 5.03742C11.0607 4.92774 11.005 4.78268 11.0077 4.63279C11.0103 4.4829 11.071 4.33989 11.177 4.23388C11.283 4.12788 11.426 4.06716 11.5759 4.06451C11.7258 4.06187 11.8709 4.11751 11.9806 4.2197L19.6949 11.934C19.8032 12.0425 19.8641 12.1895 19.8641 12.3428C19.8641 12.4962 19.8032 12.6432 19.6949 12.7517Z" fill="white"/>
<path d="M12.492 12.6367L6.94739 18.1813C6.86856 18.2548 6.76429 18.2948 6.65656 18.2929C6.54883 18.291 6.44604 18.2473 6.36985 18.1711C6.29366 18.0949 6.25001 17.9922 6.24811 17.8844C6.24621 17.7767 6.2862 17.6724 6.35966 17.5936L11.6097 12.3428L6.35966 7.09204C6.2862 7.01321 6.24621 6.90895 6.24811 6.80121C6.25001 6.69348 6.29366 6.59069 6.36985 6.5145C6.44604 6.43831 6.54883 6.39467 6.65656 6.39276C6.76429 6.39086 6.86856 6.43085 6.94739 6.50431L12.492 12.049C12.5699 12.1269 12.6136 12.2326 12.6136 12.3428C12.6136 12.453 12.5699 12.5587 12.492 12.6367Z" fill="white" fill-opacity="0.4"/>
</svg>
