<svg width="20" height="21" viewBox="0 0 20 21" fill="none" xmlns="http://www.w3.org/2000/svg">
<g id="contact_support">
<mask id="mask0_1_1548" style="mask-type:alpha" maskUnits="userSpaceOnUse" x="0" y="0" width="20" height="21">
<rect id="Bounding box" y="0.5" width="20" height="20" fill="#D9D9D9"/>
</mask>
<g mask="url(#mask0_1_1548)">
<path id="contact_support_2" opacity="0.6" d="M10 16.5C8.05097 16.5 6.39708 15.821 5.03833 14.4631C3.67944 13.1052 3 11.4524 3 9.50479C3 7.55715 3.67979 5.90278 5.03938 4.54167C6.39896 3.18056 8.05375 2.5 10.0037 2.5C10.9787 2.5 11.8885 2.68403 12.7331 3.05208C13.5777 3.42014 14.316 3.92014 14.9479 4.55208C15.5799 5.18403 16.0799 5.92271 16.4479 6.76813C16.816 7.6134 17 8.52403 17 9.5C17 11.2361 16.375 12.8681 15.125 14.3958C13.875 15.9236 12.5347 17.0833 11.1042 17.875C10.9792 17.9444 10.8542 17.9792 10.7292 17.9792C10.6042 17.9792 10.4861 17.9444 10.375 17.875C10.2639 17.8056 10.1736 17.7188 10.1042 17.6146C10.0347 17.5104 10 17.3819 10 17.2292V16.5ZM11.5 15.8333C12.6111 15 13.5556 14.0313 14.3333 12.9271C15.1111 11.8229 15.5 10.6806 15.5 9.5C15.5 7.98611 14.9618 6.69097 13.8854 5.61458C12.809 4.53819 11.5139 4 10 4C8.48611 4 7.19097 4.53819 6.11458 5.61458C5.03819 6.69097 4.5 7.98611 4.5 9.5C4.5 11.0139 5.03819 12.309 6.11458 13.3854C7.19097 14.4618 8.48611 15 10 15H11.5V15.8333ZM10 13.5C10.2304 13.5 10.4269 13.4187 10.5894 13.256C10.752 13.0935 10.8333 12.8971 10.8333 12.6667C10.8333 12.4363 10.752 12.2398 10.5894 12.0773C10.4269 11.9147 10.2304 11.8333 10 11.8333C9.76958 11.8333 9.57312 11.9147 9.41062 12.0773C9.24799 12.2398 9.16667 12.4363 9.16667 12.6667C9.16667 12.8971 9.24799 13.0935 9.41062 13.256C9.57312 13.4187 9.76958 13.5 10 13.5ZM8.22917 7.39583C8.38194 7.46528 8.53125 7.46528 8.67708 7.39583C8.82292 7.32639 8.95139 7.22222 9.0625 7.08333C9.17361 6.93056 9.30854 6.81944 9.46729 6.75C9.62604 6.68056 9.80458 6.64583 10.0029 6.64583C10.3204 6.64583 10.5799 6.73569 10.7812 6.91542C10.9826 7.095 11.0833 7.32458 11.0833 7.60417C11.0833 7.90972 10.9826 8.16319 10.7812 8.36458C10.5799 8.56597 10.3772 8.76646 10.1733 8.96604C9.905 9.19701 9.71181 9.42014 9.59375 9.63542C9.47569 9.85069 9.41667 10.0556 9.41667 10.25C9.41667 10.4454 9.47222 10.6123 9.58333 10.7506C9.69444 10.8891 9.84028 10.9583 10.0208 10.9583C10.1756 10.9583 10.3045 10.9063 10.4077 10.8021C10.5109 10.6979 10.5764 10.5694 10.6042 10.4167C10.6319 10.2222 10.7049 10.0486 10.8229 9.89583C10.941 9.74306 11.0694 9.59722 11.2083 9.45833C11.4306 9.23611 11.6667 8.98958 11.9167 8.71875C12.1667 8.44792 12.2917 8.0625 12.2917 7.5625C12.2917 6.95139 12.0833 6.45486 11.6667 6.07292C11.25 5.69097 10.7153 5.5 10.0625 5.5C9.60417 5.5 9.19792 5.59375 8.84375 5.78125C8.48958 5.96875 8.22917 6.19444 8.0625 6.45833C7.95139 6.625 7.90972 6.80556 7.9375 7C7.96528 7.19444 8.0625 7.32639 8.22917 7.39583Z" fill="white"/>
</g>
</g>
</svg>
