<svg width="20" height="21" viewBox="0 0 20 21" fill="none" xmlns="http://www.w3.org/2000/svg">
<g id="contract" opacity="0.6">
<mask id="mask0_1_1533" style="mask-type:alpha" maskUnits="userSpaceOnUse" x="0" y="0" width="20" height="21">
<rect id="Bounding box" y="0.5" width="20" height="20" fill="#D9D9D9"/>
</mask>
<g mask="url(#mask0_1_1533)">
<path id="contract_2" d="M5 18.5C4.44444 18.5 3.97222 18.3056 3.58333 17.9167C3.19444 17.5278 3 17.0556 3 16.5V15C3 14.5875 3.14687 14.2344 3.44062 13.9406C3.73437 13.6469 4.0875 13.5 4.5 13.5H5V4C5 3.5875 5.14687 3.23438 5.44062 2.94063C5.73438 2.64688 6.0875 2.5 6.5 2.5H15.5C15.9125 2.5 16.2656 2.64688 16.5594 2.94063C16.8531 3.23438 17 3.5875 17 4V16.25C17 16.875 16.7812 17.4062 16.3438 17.8438C15.9062 18.2812 15.375 18.5 14.75 18.5H5ZM14.7456 17C14.9569 17 15.1354 16.9281 15.2812 16.7844C15.4271 16.6406 15.5 16.4625 15.5 16.25V4H6.5V13.5H12.5C12.9125 13.5 13.2656 13.6469 13.5594 13.9406C13.8531 14.2344 14 14.5875 14 15V16.25C14 16.4625 14.0715 16.6406 14.2144 16.7844C14.3573 16.9281 14.5344 17 14.7456 17ZM8.25 8C8.0375 8 7.85938 7.92854 7.71563 7.78563C7.57188 7.64271 7.5 7.46563 7.5 7.25438C7.5 7.04313 7.57188 6.86458 7.71563 6.71875C7.85938 6.57292 8.0375 6.5 8.25 6.5H13.75C13.9625 6.5 14.1406 6.57146 14.2844 6.71437C14.4281 6.85729 14.5 7.03437 14.5 7.24562C14.5 7.45687 14.4281 7.63542 14.2844 7.78125C14.1406 7.92708 13.9625 8 13.75 8H8.25ZM8.25 10.5C8.0375 10.5 7.85938 10.4285 7.71563 10.2856C7.57188 10.1427 7.5 9.96563 7.5 9.75438C7.5 9.54313 7.57188 9.36458 7.71563 9.21875C7.85938 9.07292 8.0375 9 8.25 9H13.75C13.9625 9 14.1406 9.07146 14.2844 9.21437C14.4281 9.35729 14.5 9.53437 14.5 9.74562C14.5 9.95687 14.4281 10.1354 14.2844 10.2812C14.1406 10.4271 13.9625 10.5 13.75 10.5H8.25ZM5 17H12.5V15H4.5V16.5C4.5 16.6417 4.54792 16.7604 4.64375 16.8562C4.73958 16.9521 4.85833 17 5 17ZM5 17H4.5H12.5H5Z" fill="white"/>
</g>
</g>
</svg>
