<svg width="20" height="20" viewBox="0 0 20 20" fill="none" xmlns="http://www.w3.org/2000/svg">
<g id="corporate_fare">
<mask id="mask0_1_1493" style="mask-type:alpha" maskUnits="userSpaceOnUse" x="0" y="0" width="20" height="20">
<rect id="Bounding box" width="20" height="20" fill="#D9D9D9"/>
</mask>
<g mask="url(#mask0_1_1493)">
<path id="corporate_fare_2" d="M3.5 17C3.0875 17 2.73438 16.8531 2.44063 16.5592C2.14688 16.2653 2 15.912 2 15.4993V4.99406C2 4.58135 2.14688 4.22917 2.44063 3.9375C2.73438 3.64583 3.0875 3.5 3.5 3.5H8.5C8.9125 3.5 9.26563 3.64688 9.55938 3.94063C9.85313 4.23438 10 4.5875 10 5V6.5H16.5C16.9125 6.5 17.2656 6.64697 17.5594 6.94092C17.8531 7.23486 18 7.58822 18 8.00098V15.5059C18 15.9186 17.8531 16.2708 17.5594 16.5625C17.2656 16.8542 16.9125 17 16.5 17H3.5ZM3.5 15.5H8.5V14H3.5V15.5ZM3.5 12.5H8.5V11H3.5V12.5ZM3.5 9.5H8.5V8H3.5V9.5ZM3.5 6.5H8.5V5H3.5V6.5ZM10 15.5H16.5V8H10V15.5ZM12.25 11C12.0375 11 11.8594 10.9285 11.7156 10.7856C11.5719 10.6427 11.5 10.4656 11.5 10.2544C11.5 10.0431 11.5719 9.86458 11.7156 9.71875C11.8594 9.57292 12.0375 9.5 12.25 9.5H14.25C14.4625 9.5 14.6406 9.57145 14.7844 9.71435C14.9281 9.85727 15 10.0344 15 10.2456C15 10.4569 14.9281 10.6354 14.7844 10.7812C14.6406 10.9271 14.4625 11 14.25 11H12.25ZM12.25 14C12.0375 14 11.8594 13.9285 11.7156 13.7856C11.5719 13.6427 11.5 13.4656 11.5 13.2544C11.5 13.0431 11.5719 12.8646 11.7156 12.7188C11.8594 12.5729 12.0375 12.5 12.25 12.5H14.25C14.4625 12.5 14.6406 12.5715 14.7844 12.7144C14.9281 12.8573 15 13.0344 15 13.2456C15 13.4569 14.9281 13.6354 14.7844 13.7812C14.6406 13.9271 14.4625 14 14.25 14H12.25Z" fill="white"/>
</g>
</g>
</svg>
