<svg width="20" height="21" viewBox="0 0 20 21" fill="none" xmlns="http://www.w3.org/2000/svg">
<g id="directions_car" opacity="0.6">
<mask id="mask0_1_1538" style="mask-type:alpha" maskUnits="userSpaceOnUse" x="0" y="0" width="20" height="21">
<rect id="Bounding box" y="0.5" width="20" height="20" fill="#D9D9D9"/>
</mask>
<g mask="url(#mask0_1_1538)">
<path id="directions_car_2" d="M5 16V16.5C5 16.7778 4.90278 17.0139 4.70833 17.2083C4.51389 17.4028 4.27778 17.5 4 17.5C3.72222 17.5 3.48611 17.4028 3.29167 17.2083C3.09722 17.0139 3 16.7778 3 16.5V10.794C3 10.7009 3.01042 10.6078 3.03125 10.5146C3.05208 10.4215 3.07639 10.3264 3.10417 10.2292L4.62896 6.44708C4.73743 6.16292 4.92014 5.93403 5.17708 5.76042C5.43403 5.58681 5.71528 5.5 6.02083 5.5H13.9792C14.2847 5.5 14.566 5.58681 14.8229 5.76042C15.0799 5.93403 15.2626 6.16292 15.371 6.44708L16.8958 10.2292C16.9236 10.3264 16.9479 10.4215 16.9688 10.5146C16.9896 10.6078 17 10.7009 17 10.794V16.5C17 16.7778 16.9028 17.0139 16.7083 17.2083C16.5139 17.4028 16.2778 17.5 16 17.5C15.7222 17.5 15.4861 17.4028 15.2917 17.2083C15.0972 17.0139 15 16.7778 15 16.5V16H5ZM5.02083 9.5H14.9792L13.9792 7H6.02083L5.02083 9.5ZM6.5 13.75C6.77778 13.75 7.01389 13.6528 7.20833 13.4583C7.40278 13.2639 7.5 13.0278 7.5 12.75C7.5 12.4722 7.40278 12.2361 7.20833 12.0417C7.01389 11.8472 6.77778 11.75 6.5 11.75C6.22222 11.75 5.98611 11.8472 5.79167 12.0417C5.59722 12.2361 5.5 12.4722 5.5 12.75C5.5 13.0278 5.59722 13.2639 5.79167 13.4583C5.98611 13.6528 6.22222 13.75 6.5 13.75ZM13.5 13.75C13.7778 13.75 14.0139 13.6528 14.2083 13.4583C14.4028 13.2639 14.5 13.0278 14.5 12.75C14.5 12.4722 14.4028 12.2361 14.2083 12.0417C14.0139 11.8472 13.7778 11.75 13.5 11.75C13.2222 11.75 12.9861 11.8472 12.7917 12.0417C12.5972 12.2361 12.5 12.4722 12.5 12.75C12.5 13.0278 12.5972 13.2639 12.7917 13.4583C12.9861 13.6528 13.2222 13.75 13.5 13.75ZM4.5 14.5H15.5V11H4.5V14.5Z" fill="white"/>
</g>
</g>
</svg>
