<svg width="20" height="21" viewBox="0 0 20 21" fill="none" xmlns="http://www.w3.org/2000/svg">
<g id="event">
<mask id="mask0_1_1528" style="mask-type:alpha" maskUnits="userSpaceOnUse" x="0" y="0" width="20" height="21">
<rect id="Bounding box" y="0.5" width="20" height="20" fill="#D9D9D9"/>
</mask>
<g mask="url(#mask0_1_1528)">
<path id="event_2" d="M12.0047 15.5C11.446 15.5 10.9722 15.3071 10.5833 14.9214C10.1944 14.5356 10 14.0634 10 13.5047C10 12.946 10.1929 12.4722 10.5786 12.0833C10.9644 11.6944 11.4366 11.5 11.9953 11.5C12.554 11.5 13.0278 11.6929 13.4167 12.0786C13.8056 12.4644 14 12.9366 14 13.4953C14 14.054 13.8071 14.5278 13.4214 14.9167C13.0356 15.3056 12.5634 15.5 12.0047 15.5ZM4.5 18.5C4.0875 18.5 3.73437 18.3507 3.44062 18.0521C3.14687 17.7535 3 17.4028 3 17V6C3 5.59722 3.14687 5.24653 3.44062 4.94792C3.73437 4.64931 4.0875 4.5 4.5 4.5H6V3.25C6 3.0375 6.07145 2.85937 6.21435 2.71562C6.35727 2.57187 6.53435 2.5 6.7456 2.5C6.95687 2.5 7.13542 2.57187 7.28125 2.71562C7.42708 2.85937 7.5 3.0375 7.5 3.25V4.5H12.5V3.25C12.5 3.0375 12.5715 2.85937 12.7144 2.71562C12.8573 2.57187 13.0344 2.5 13.2456 2.5C13.4569 2.5 13.6354 2.57187 13.7812 2.71562C13.9271 2.85937 14 3.0375 14 3.25V4.5H15.5C15.9125 4.5 16.2656 4.64931 16.5594 4.94792C16.8531 5.24653 17 5.59722 17 6V17C17 17.4028 16.8531 17.7535 16.5594 18.0521C16.2656 18.3507 15.9125 18.5 15.5 18.5H4.5ZM4.5 17H15.5V9.5H4.5V17ZM4.5 8H15.5V6H4.5V8Z" fill="white" fill-opacity="0.6"/>
</g>
</g>
</svg>
