<svg width="20" height="21" viewBox="0 0 20 21" fill="none" xmlns="http://www.w3.org/2000/svg">
<g id="flight">
<mask id="mask0_1_1543" style="mask-type:alpha" maskUnits="userSpaceOnUse" x="0" y="0" width="20" height="21">
<rect id="Bounding box" y="0.5" width="20" height="20" fill="#D9D9D9"/>
</mask>
<g mask="url(#mask0_1_1543)">
<path id="flight_2" d="M10 17.5L7.625 18.2917C7.46736 18.3472 7.32375 18.3264 7.19417 18.2292C7.06472 18.1319 7 18 7 17.8333C7 17.7099 7.01389 17.6096 7.04167 17.5325C7.06944 17.4553 7.11806 17.3958 7.1875 17.3542L8.75 16.1875V11.5625L2.91667 13.2292C2.67972 13.2986 2.46771 13.2604 2.28063 13.1146C2.09354 12.9688 2 12.7747 2 12.5323C2 12.3503 2.03125 12.1988 2.09375 12.0777C2.15625 11.9565 2.24306 11.8611 2.35417 11.7917L8.75 8.14583V3.75C8.75 3.40278 8.87153 3.10764 9.11458 2.86458C9.35764 2.62153 9.65278 2.5 10 2.5C10.3472 2.5 10.6424 2.62153 10.8854 2.86458C11.1285 3.10764 11.25 3.40278 11.25 3.75V8.14583L17.6458 11.7917C17.7569 11.8611 17.8438 11.9565 17.9062 12.0777C17.9688 12.1988 18 12.3503 18 12.5323C18 12.7747 17.9065 12.9688 17.7194 13.1146C17.5323 13.2604 17.3203 13.2986 17.0833 13.2292L11.25 11.5625V16.1875L12.8125 17.3542C12.8819 17.3958 12.9306 17.4553 12.9583 17.5325C12.9861 17.6096 13 17.7099 13 17.8333C13 17.9964 12.934 18.1274 12.8021 18.2265C12.6701 18.3255 12.5278 18.3472 12.375 18.2917L10 17.5Z" fill="white" fill-opacity="0.6"/>
</g>
</g>
</svg>
