<svg width="14" height="14" viewBox="0 0 14 14" fill="none" xmlns="http://www.w3.org/2000/svg">
<g id="Icon">
<g id="analytics">
<mask id="mask0_20_587" style="mask-type:alpha" maskUnits="userSpaceOnUse" x="-3" y="-3" width="20" height="20">
<rect id="Bounding box" x="-3" y="-3" width="20" height="20" fill="#D9D9D9"/>
</mask>
<g mask="url(#mask0_20_587)">
<path id="analytics_2" d="M3.75437 7C3.54312 7 3.36458 7.07188 3.21875 7.21563C3.07292 7.35938 3 7.5375 3 7.75V10.25C3 10.4625 3.07146 10.6406 3.21438 10.7844C3.35729 10.9281 3.53438 11 3.74563 11C3.95688 11 4.13542 10.9281 4.28125 10.7844C4.42708 10.6406 4.5 10.4625 4.5 10.25V7.75C4.5 7.5375 4.42854 7.35938 4.28562 7.21563C4.14271 7.07188 3.96562 7 3.75437 7ZM10.2544 3C10.0431 3 9.86458 3.07187 9.71875 3.21562C9.57292 3.35937 9.5 3.5375 9.5 3.75V10.25C9.5 10.4625 9.57146 10.6406 9.71437 10.7844C9.85729 10.9281 10.0344 11 10.2456 11C10.4569 11 10.6354 10.9281 10.7812 10.7844C10.9271 10.6406 11 10.4625 11 10.25V3.75C11 3.5375 10.9285 3.35937 10.7856 3.21562C10.6427 3.07187 10.4656 3 10.2544 3ZM7.00437 8C6.79312 8 6.61458 8.07188 6.46875 8.21563C6.32292 8.35938 6.25 8.5375 6.25 8.75V10.25C6.25 10.4625 6.32146 10.6406 6.46438 10.7844C6.60729 10.9281 6.78438 11 6.99563 11C7.20688 11 7.38542 10.9281 7.53125 10.7844C7.67708 10.6406 7.75 10.4625 7.75 10.25V8.75C7.75 8.5375 7.67854 8.35938 7.53562 8.21563C7.39271 8.07188 7.21562 8 7.00437 8ZM1.5 14C1.0875 14 0.734375 13.8531 0.440625 13.5594C0.146875 13.2656 0 12.9125 0 12.5V1.5C0 1.0875 0.146875 0.734376 0.440625 0.440626C0.734375 0.146876 1.0875 0 1.5 0H12.5C12.9125 0 13.2656 0.146876 13.5594 0.440626C13.8531 0.734376 14 1.0875 14 1.5V12.5C14 12.9125 13.8531 13.2656 13.5594 13.5594C13.2656 13.8531 12.9125 14 12.5 14H1.5ZM1.5 12.5H12.5V1.5H1.5V12.5ZM6.99563 7C7.20688 7 7.38542 6.92854 7.53125 6.78562C7.67708 6.64271 7.75 6.46563 7.75 6.25438C7.75 6.04313 7.67854 5.86458 7.53562 5.71875C7.39271 5.57292 7.21562 5.5 7.00437 5.5C6.79312 5.5 6.61458 5.57146 6.46875 5.71437C6.32292 5.85729 6.25 6.03437 6.25 6.24562C6.25 6.45687 6.32146 6.63542 6.46438 6.78125C6.60729 6.92708 6.78438 7 6.99563 7Z" fill="#00A653"/>
</g>
</g>
</g>
</svg>
