<svg width="20" height="21" viewBox="0 0 20 21" fill="none" xmlns="http://www.w3.org/2000/svg">
<g id="image">
<mask id="mask0_1_1553" style="mask-type:alpha" maskUnits="userSpaceOnUse" x="0" y="0" width="20" height="21">
<rect id="Bounding box" y="0.5" width="20" height="20" fill="#D9D9D9"/>
</mask>
<g mask="url(#mask0_1_1553)">
<path id="image_2" d="M4.5 17.5C4.0875 17.5 3.73437 17.3507 3.44062 17.0521C3.14687 16.7535 3 16.4028 3 16V5C3 4.59722 3.14687 4.24653 3.44062 3.94792C3.73437 3.64931 4.0875 3.5 4.5 3.5H15.5C15.9125 3.5 16.2656 3.64931 16.5594 3.94792C16.8531 4.24653 17 4.59722 17 5V16C17 16.4028 16.8531 16.7535 16.5594 17.0521C16.2656 17.3507 15.9125 17.5 15.5 17.5H4.5ZM4.5 16H15.5V5H4.5V16ZM6.25 14.5H13.754C13.9041 14.5 14.0139 14.4306 14.0833 14.2917C14.1528 14.1528 14.1389 14.0208 14.0417 13.8958L11.7917 10.8958C11.7188 10.7847 11.6215 10.7292 11.5 10.7292C11.3785 10.7292 11.2813 10.7847 11.2083 10.8958L9.25 13.5L8.04167 11.8958C7.96875 11.7847 7.87153 11.7292 7.75 11.7292C7.62847 11.7292 7.53125 11.7847 7.45833 11.8958L5.96208 13.8965C5.86236 14.021 5.84896 14.1528 5.92188 14.2917C5.99479 14.4306 6.10417 14.5 6.25 14.5Z" fill="white" fill-opacity="0.6"/>
</g>
</g>
</svg>
