<svg width="20" height="21" viewBox="0 0 20 21" fill="none" xmlns="http://www.w3.org/2000/svg">
<g id="lab_profile">
<mask id="mask0_1_1513" style="mask-type:alpha" maskUnits="userSpaceOnUse" x="0" y="0" width="20" height="21">
<rect id="Bounding box" y="0.5" width="20" height="20" fill="#D9D9D9"/>
</mask>
<g mask="url(#mask0_1_1513)">
<path id="lab_profile_2" d="M7.7559 10.5C7.54363 10.5 7.36458 10.4285 7.21875 10.2856C7.07292 10.1427 7 9.96565 7 9.7544C7 9.54313 7.07179 9.36458 7.21538 9.21875C7.35897 9.07292 7.5369 9 7.74917 9H12.2441C12.4564 9 12.6354 9.07145 12.7812 9.21435C12.9271 9.35727 13 9.53435 13 9.7456C13 9.95687 12.9282 10.1354 12.7846 10.2812C12.641 10.4271 12.4631 10.5 12.2508 10.5H7.7559ZM7.7559 7.5C7.54363 7.5 7.36458 7.42855 7.21875 7.28565C7.07292 7.14273 7 6.96565 7 6.7544C7 6.54313 7.07179 6.36458 7.21538 6.21875C7.35897 6.07292 7.5369 6 7.74917 6H12.2441C12.4564 6 12.6354 6.07145 12.7812 6.21435C12.9271 6.35727 13 6.53435 13 6.7456C13 6.95687 12.9282 7.13542 12.7846 7.28125C12.641 7.42708 12.4631 7.5 12.2508 7.5H7.7559ZM5.5 12.5H11.25C11.6108 12.5 11.9468 12.576 12.2578 12.7279C12.5689 12.8798 12.8302 13.0955 13.0417 13.375L14.5 15.2917V4H5.5V12.5ZM5.5 17H13.9167L11.863 14.297C11.7877 14.1962 11.6944 14.1215 11.5833 14.0729C11.4722 14.0243 11.3611 14 11.25 14H5.5V17ZM14.4992 18.5H5.4941C5.08137 18.5 4.72917 18.3531 4.4375 18.0594C4.14583 17.7656 4 17.4125 4 17V4C4 3.5875 4.14696 3.23438 4.44088 2.94063C4.73479 2.64688 5.08811 2.5 5.50083 2.5H14.5059C14.9186 2.5 15.2708 2.64688 15.5625 2.94063C15.8542 3.23438 16 3.5875 16 4V17C16 17.4125 15.853 17.7656 15.5591 18.0594C15.2652 18.3531 14.9119 18.5 14.4992 18.5Z" fill="white" fill-opacity="0.6"/>
</g>
</g>
</svg>
