<svg width="20" height="20" viewBox="0 0 20 20" fill="none" xmlns="http://www.w3.org/2000/svg">
<g id="last_page">
<mask id="mask0_1_1572" style="mask-type:alpha" maskUnits="userSpaceOnUse" x="0" y="0" width="20" height="20">
<rect id="Bounding box" x="20" y="20" width="20" height="20" transform="rotate(-180 20 20)" fill="#D9D9D9"/>
</mask>
<g mask="url(#mask0_1_1572)">
<path id="last_page_2" d="M11.125 10L13.5417 12.4167C13.6944 12.5694 13.7708 12.7465 13.7708 12.9479C13.7708 13.1493 13.6944 13.3264 13.5417 13.4792C13.3889 13.6319 13.2118 13.7083 13.0104 13.7083C12.809 13.7083 12.6319 13.6319 12.4792 13.4792L9.52083 10.5208C9.45139 10.4458 9.3993 10.3646 9.36458 10.2771C9.32986 10.1896 9.3125 10.0958 9.3125 9.99583C9.3125 9.89583 9.32986 9.80208 9.36458 9.71458C9.3993 9.62708 9.45139 9.54861 9.52083 9.47917L12.4792 6.52083C12.6319 6.36806 12.8056 6.29514 13 6.30208C13.1944 6.30903 13.3681 6.38889 13.5208 6.54167C13.6736 6.69444 13.75 6.87153 13.75 7.07292C13.75 7.27431 13.6736 7.45139 13.5208 7.60417L11.125 10ZM5.75439 14C5.54313 14 5.36458 13.9281 5.21875 13.7844C5.07292 13.6406 5 13.4625 5 13.25V6.75C5 6.5375 5.07145 6.35937 5.21435 6.21562C5.35727 6.07187 5.53435 6 5.7456 6C5.95687 6 6.13542 6.07187 6.28125 6.21562C6.42708 6.35937 6.5 6.5375 6.5 6.75L6.5 13.25C6.5 13.4625 6.42855 13.6406 6.28564 13.7844C6.14273 13.9281 5.96564 14 5.75439 14Z" fill="white"/>
</g>
</g>
</svg>
