<svg width="20" height="21" viewBox="0 0 20 21" fill="none" xmlns="http://www.w3.org/2000/svg">
<g id="light_mode">
<mask id="mask0_1_1560" style="mask-type:alpha" maskUnits="userSpaceOnUse" x="0" y="0" width="20" height="21">
<rect id="Bounding box" y="0.5" width="20" height="20" fill="#D9D9D9"/>
</mask>
<g mask="url(#mask0_1_1560)">
<path id="light_mode_2" d="M10 13C10.6944 13 11.2847 12.7569 11.7708 12.2708C12.2569 11.7847 12.5 11.1944 12.5 10.5C12.5 9.80556 12.2569 9.21528 11.7708 8.72917C11.2847 8.24306 10.6944 8 10 8C9.30556 8 8.71528 8.24306 8.22917 8.72917C7.74306 9.21528 7.5 9.80556 7.5 10.5C7.5 11.1944 7.74306 11.7847 8.22917 12.2708C8.71528 12.7569 9.30556 13 10 13ZM9.99529 14.5C8.88732 14.5 7.94444 14.1095 7.16667 13.3286C6.38889 12.5477 6 11.6033 6 10.4953C6 9.38732 6.39046 8.44444 7.17138 7.66667C7.95229 6.88889 8.89674 6.5 10.0047 6.5C11.1127 6.5 12.0556 6.89046 12.8333 7.67138C13.6111 8.45229 14 9.39674 14 10.5047C14 11.6127 13.6095 12.5556 12.8286 13.3333C12.0477 14.1111 11.1033 14.5 9.99529 14.5ZM1.75 11.25C1.5375 11.25 1.35938 11.1785 1.21562 11.0356C1.07187 10.8927 1 10.7156 1 10.5044C1 10.2931 1.07187 10.1146 1.21562 9.96875C1.35938 9.82292 1.5375 9.75 1.75 9.75H3.75C3.9625 9.75 4.14062 9.82145 4.28437 9.96435C4.42812 10.1073 4.5 10.2844 4.5 10.4956C4.5 10.7069 4.42812 10.8854 4.28437 11.0312C4.14062 11.1771 3.9625 11.25 3.75 11.25H1.75ZM16.25 11.25C16.0375 11.25 15.8594 11.1785 15.7156 11.0356C15.5719 10.8927 15.5 10.7156 15.5 10.5044C15.5 10.2931 15.5719 10.1146 15.7156 9.96875C15.8594 9.82292 16.0375 9.75 16.25 9.75H18.25C18.4625 9.75 18.6406 9.82145 18.7844 9.96435C18.9281 10.1073 19 10.2844 19 10.4956C19 10.7069 18.9281 10.8854 18.7844 11.0312C18.6406 11.1771 18.4625 11.25 18.25 11.25H16.25ZM10.0044 5C9.79313 5 9.61458 4.92813 9.46875 4.78438C9.32292 4.64063 9.25 4.4625 9.25 4.25V2.25C9.25 2.0375 9.32145 1.85937 9.46435 1.71562C9.60727 1.57187 9.78435 1.5 9.9956 1.5C10.2069 1.5 10.3854 1.57187 10.5312 1.71562C10.6771 1.85937 10.75 2.0375 10.75 2.25V4.25C10.75 4.4625 10.6785 4.64063 10.5356 4.78438C10.3927 4.92813 10.2156 5 10.0044 5ZM10.0044 19.5C9.79313 19.5 9.61458 19.4281 9.46875 19.2844C9.32292 19.1406 9.25 18.9625 9.25 18.75V16.75C9.25 16.5375 9.32145 16.3594 9.46435 16.2156C9.60727 16.0719 9.78435 16 9.9956 16C10.2069 16 10.3854 16.0719 10.5312 16.2156C10.6771 16.3594 10.75 16.5375 10.75 16.75V18.75C10.75 18.9625 10.6785 19.1406 10.5356 19.2844C10.3927 19.4281 10.2156 19.5 10.0044 19.5ZM5.04167 6.60417L4 5.54167C3.84722 5.40278 3.77083 5.23264 3.77083 5.03125C3.77083 4.82986 3.84722 4.65278 4 4.5C4.14493 4.34722 4.32005 4.27083 4.52535 4.27083C4.73067 4.27083 4.90278 4.34722 5.04167 4.5L6.10417 5.54167C6.25694 5.69363 6.33333 5.87091 6.33333 6.07352C6.33333 6.27615 6.25694 6.45344 6.10417 6.6054C5.96528 6.75735 5.79167 6.83333 5.58333 6.83333C5.375 6.83333 5.19444 6.75694 5.04167 6.60417ZM14.9583 16.5L13.8958 15.4583C13.7431 15.3102 13.6667 15.1343 13.6667 14.9306C13.6667 14.7269 13.7431 14.5486 13.8958 14.3958C14.0347 14.2431 14.2083 14.1667 14.4167 14.1667C14.625 14.1667 14.8056 14.2431 14.9583 14.3958L16 15.4583C16.1528 15.5972 16.2292 15.7674 16.2292 15.9688C16.2292 16.1701 16.1561 16.3472 16.01 16.5C15.8505 16.6528 15.6736 16.7292 15.4792 16.7292C15.2847 16.7292 15.1111 16.6528 14.9583 16.5ZM13.8946 6.60417C13.7426 6.46528 13.6667 6.29167 13.6667 6.08333C13.6667 5.875 13.7431 5.69444 13.8958 5.54167L14.9583 4.5C15.1111 4.34722 15.2847 4.27431 15.4792 4.28125C15.6736 4.28819 15.8472 4.36141 16 4.5009C16.1528 4.65308 16.2292 4.82639 16.2292 5.02083C16.2292 5.21528 16.1528 5.38889 16 5.54167L14.9583 6.60417C14.8064 6.75694 14.6291 6.83333 14.4265 6.83333C14.2239 6.83333 14.0466 6.75694 13.8946 6.60417ZM4 16.5C3.84722 16.3551 3.77083 16.18 3.77083 15.9746C3.77083 15.7693 3.84722 15.5972 4 15.4583L5.04167 14.3958C5.18982 14.2569 5.36574 14.1875 5.56944 14.1875C5.77315 14.1875 5.95139 14.2569 6.10417 14.3958C6.25694 14.5486 6.33015 14.7269 6.32379 14.9306C6.31742 15.1343 6.24421 15.3102 6.10417 15.4583L5.04167 16.5C4.90278 16.6528 4.73264 16.7292 4.53125 16.7292C4.32986 16.7292 4.15278 16.6528 4 16.5Z" fill="white"/>
</g>
</g>
</svg>
