<svg width="16" height="16" viewBox="0 0 16 16" fill="none" xmlns="http://www.w3.org/2000/svg">
<path d="M7.37504 11.9583H8.62504V7.16666H7.37504V11.9583ZM8.00004 5.74041C8.19073 5.74041 8.3506 5.6759 8.47962 5.54687C8.60865 5.41784 8.67317 5.25798 8.67317 5.06729C8.67317 4.87659 8.60865 4.71673 8.47962 4.5877C8.3506 4.45881 8.19073 4.39437 8.00004 4.39437C7.80935 4.39437 7.64949 4.45881 7.52046 4.5877C7.39143 4.71673 7.32692 4.87659 7.32692 5.06729C7.32692 5.25798 7.39143 5.41784 7.52046 5.54687C7.64949 5.6759 7.80935 5.74041 8.00004 5.74041ZM8.0015 15.9167C6.9065 15.9167 5.87726 15.7089 4.91379 15.2933C3.95032 14.8778 3.11226 14.3138 2.39962 13.6015C1.68698 12.8891 1.12275 12.0514 0.706915 11.0883C0.291221 10.1253 0.083374 9.09631 0.083374 8.00145C0.083374 6.90645 0.291152 5.87722 0.706707 4.91374C1.12226 3.95027 1.68622 3.11222 2.39858 2.39958C3.11094 1.68694 3.94865 1.1227 4.91171 0.70687C5.87476 0.291175 6.90372 0.0833282 7.99858 0.0833282C9.09358 0.0833282 10.1228 0.291106 11.0863 0.706661C12.0498 1.12222 12.8878 1.68618 13.6005 2.39854C14.3131 3.1109 14.8773 3.94861 15.2932 4.91166C15.7089 5.87472 15.9167 6.90368 15.9167 7.99854C15.9167 9.09354 15.7089 10.1228 15.2934 11.0862C14.8778 12.0497 14.3139 12.8878 13.6015 13.6004C12.8891 14.313 12.0514 14.8773 11.0884 15.2931C10.1253 15.7088 9.09636 15.9167 8.0015 15.9167Z" fill="white" fill-opacity="0.5"/>
</svg>
