<svg width="20" height="21" viewBox="0 0 20 21" fill="none" xmlns="http://www.w3.org/2000/svg">
<g id="person_book">
<mask id="mask0_1_1508" style="mask-type:alpha" maskUnits="userSpaceOnUse" x="0" y="0" width="20" height="21">
<rect id="Bounding box" y="0.5" width="20" height="20" fill="#D9D9D9"/>
</mask>
<g mask="url(#mask0_1_1508)">
<path id="person_book_2" d="M10 15.5C9.18056 15.5 8.39236 15.6285 7.63542 15.8854C6.87847 16.1424 6.17361 16.5139 5.52083 17H14.4792C13.8403 16.5139 13.1389 16.1424 12.375 15.8854C11.6111 15.6285 10.8194 15.5 10 15.5ZM10 14C10.7917 14 11.5694 14.0972 12.3333 14.2917C13.0972 14.4861 13.8194 14.7847 14.5 15.1875V4H5.5V15.1875C6.18056 14.7847 6.90278 14.4861 7.66667 14.2917C8.43056 14.0972 9.20833 14 10 14ZM10 11.5C9.58333 11.5 9.22917 11.3542 8.9375 11.0625C8.64583 10.7708 8.5 10.4167 8.5 10C8.5 9.58333 8.64583 9.22917 8.9375 8.9375C9.22917 8.64583 9.58333 8.5 10 8.5C10.4167 8.5 10.7708 8.64583 11.0625 8.9375C11.3542 9.22917 11.5 9.58333 11.5 10C11.5 10.4167 11.3542 10.7708 11.0625 11.0625C10.7708 11.3542 10.4167 11.5 10 11.5ZM5.4941 18.5C5.08137 18.5 4.72917 18.3531 4.4375 18.0594C4.14583 17.7656 4 17.4125 4 17V4C4 3.5875 4.14696 3.23438 4.44088 2.94063C4.73479 2.64688 5.08811 2.5 5.50083 2.5H14.5059C14.9186 2.5 15.2708 2.64688 15.5625 2.94063C15.8542 3.23438 16 3.5875 16 4V17C16 17.4125 15.853 17.7656 15.5591 18.0594C15.2652 18.3531 14.9119 18.5 14.4992 18.5H5.4941ZM10.005 13C10.835 13 11.5417 12.7067 12.125 12.12C12.7083 11.5333 13 10.8249 13 9.99496C13 9.16499 12.7067 8.45833 12.12 7.875C11.5333 7.29167 10.8249 7 9.99496 7C9.16499 7 8.45833 7.29335 7.875 7.88004C7.29167 8.46675 7 9.17508 7 10.005C7 10.835 7.29335 11.5417 7.88004 12.125C8.46675 12.7083 9.17508 13 10.005 13Z" fill="white" fill-opacity="0.6"/>
</g>
</g>
</svg>
