<svg width="20" height="21" viewBox="0 0 20 21" fill="none" xmlns="http://www.w3.org/2000/svg">
<g id="receipt_long" opacity="0.6">
<mask id="mask0_1_1498" style="mask-type:alpha" maskUnits="userSpaceOnUse" x="0" y="0" width="20" height="21">
<rect id="Bounding box" y="0.5" width="20" height="20" fill="#D9D9D9"/>
</mask>
<g mask="url(#mask0_1_1498)">
<path id="receipt_long_2" d="M5 18.5C4.36111 18.5 3.86806 18.3299 3.52083 17.9896C3.17361 17.6493 3 17.1528 3 16.5V14.25C3 14.0417 3.07292 13.8646 3.21875 13.7188C3.36458 13.5729 3.54167 13.5 3.75 13.5H5V2.95834C5 2.87501 5.03472 2.81251 5.10417 2.77084C5.17361 2.72917 5.24306 2.74306 5.3125 2.81251L5.9375 3.43751C6.00694 3.50695 6.09722 3.54167 6.20833 3.54167C6.31944 3.54167 6.40972 3.50695 6.47917 3.43751L7.125 2.77084C7.19444 2.70139 7.28472 2.66667 7.39583 2.66667C7.50694 2.66667 7.59722 2.70139 7.66667 2.77084L8.33333 3.43751C8.40278 3.50695 8.49306 3.54167 8.60417 3.54167C8.71528 3.54167 8.80556 3.50695 8.875 3.43751L9.52083 2.77084C9.59028 2.70139 9.68056 2.66667 9.79167 2.66667C9.90278 2.66667 9.99306 2.70139 10.0625 2.77084L10.7292 3.43751C10.7986 3.50695 10.8889 3.54167 11 3.54167C11.1111 3.54167 11.2014 3.50695 11.2708 3.43751L11.9375 2.77084C12.0069 2.70139 12.0972 2.66667 12.2083 2.66667C12.3194 2.66667 12.4097 2.70139 12.4792 2.77084L13.125 3.43751C13.1944 3.50695 13.2847 3.54167 13.3958 3.54167C13.5069 3.54167 13.5972 3.50695 13.6667 3.43751L14.3333 2.77084C14.4028 2.70139 14.4931 2.66667 14.6042 2.66667C14.7153 2.66667 14.8056 2.70139 14.875 2.77084L15.5208 3.43751C15.5903 3.50695 15.6806 3.54167 15.7917 3.54167C15.9028 3.54167 15.9931 3.50695 16.0625 3.43751L16.6875 2.81251C16.7569 2.74306 16.8264 2.72917 16.8958 2.77084C16.9653 2.81251 17 2.87501 17 2.95834V16.25C17 16.9028 16.7847 17.441 16.3542 17.8646C15.9236 18.2882 15.3889 18.5 14.75 18.5H5ZM14.75 17C14.9722 17 15.1528 16.934 15.2917 16.8021C15.4306 16.6701 15.5 16.4861 15.5 16.25V5.00001H6.5V13.5H13.25C13.4583 13.5 13.6354 13.5729 13.7812 13.7188C13.9271 13.8646 14 14.0417 14 14.25V16.25C14 16.4861 14.0694 16.6701 14.2083 16.8021C14.3472 16.934 14.5278 17 14.75 17ZM8.25 6.50001H11.25C11.4583 6.50001 11.6354 6.57292 11.7812 6.71876C11.9271 6.86459 12 7.04167 12 7.25001C12 7.45834 11.9271 7.63542 11.7812 7.78126C11.6354 7.92709 11.4583 8.00001 11.25 8.00001H8.25C8.04167 8.00001 7.86458 7.92709 7.71875 7.78126C7.57292 7.63542 7.5 7.45834 7.5 7.25001C7.5 7.04167 7.57292 6.86459 7.71875 6.71876C7.86458 6.57292 8.04167 6.50001 8.25 6.50001ZM8.25 9.00001H11.25C11.4583 9.00001 11.6354 9.07292 11.7812 9.21876C11.9271 9.36459 12 9.54167 12 9.75001C12 9.95834 11.9271 10.1354 11.7812 10.2813C11.6354 10.4271 11.4583 10.5 11.25 10.5H8.25C8.04167 10.5 7.86458 10.4271 7.71875 10.2813C7.57292 10.1354 7.5 9.95834 7.5 9.75001C7.5 9.54167 7.57292 9.36459 7.71875 9.21876C7.86458 9.07292 8.04167 9.00001 8.25 9.00001ZM13.75 8.00001C13.5556 8.00001 13.3819 7.92709 13.2292 7.78126C13.0764 7.63542 13 7.45834 13 7.25001C13 7.04167 13.0764 6.86459 13.2292 6.71876C13.3819 6.57292 13.5556 6.50001 13.75 6.50001C13.9583 6.50001 14.1354 6.57292 14.2812 6.71876C14.4271 6.86459 14.5 7.04167 14.5 7.25001C14.5 7.45834 14.4271 7.63542 14.2812 7.78126C14.1354 7.92709 13.9583 8.00001 13.75 8.00001ZM13.75 10.5C13.5556 10.5 13.3819 10.4271 13.2292 10.2813C13.0764 10.1354 13 9.95834 13 9.75001C13 9.54167 13.0764 9.36459 13.2292 9.21876C13.3819 9.07292 13.5556 9.00001 13.75 9.00001C13.9583 9.00001 14.1354 9.07292 14.2812 9.21876C14.4271 9.36459 14.5 9.54167 14.5 9.75001C14.5 9.95834 14.4271 10.1354 14.2812 10.2813C14.1354 10.4271 13.9583 10.5 13.75 10.5ZM5 17H12.5V15H4.5V16.5C4.5 16.7361 4.52431 16.8785 4.57292 16.9271C4.62153 16.9757 4.76389 17 5 17Z" fill="white"/>
</g>
</g>
</svg>
