<svg width="20" height="21" viewBox="0 0 20 21" fill="none" xmlns="http://www.w3.org/2000/svg">
<mask id="mask0_1_1488" style="mask-type:alpha" maskUnits="userSpaceOnUse" x="0" y="0" width="20" height="21">
<rect y="0.5" width="20" height="20" fill="#D9D9D9"/>
</mask>
<g mask="url(#mask0_1_1488)">
<path d="M8.9375 13.0417C9.25694 13.3472 9.65278 13.4896 10.125 13.4688C10.5972 13.4479 10.9444 13.2708 11.1667 12.9375L14.4375 8.08333C14.5486 7.91667 14.5312 7.76042 14.3854 7.61458C14.2396 7.46875 14.0833 7.45139 13.9167 7.5625L9.05998 10.8386C8.71444 11.0712 8.52778 11.4201 8.5 11.8854C8.47222 12.3507 8.61806 12.7361 8.9375 13.0417ZM10.0208 4.5C10.5486 4.5 11.0417 4.54514 11.5 4.63542C11.9583 4.72569 12.3886 4.84685 12.7908 4.9989C12.9858 5.06908 13.1076 5.19965 13.1562 5.39062C13.2049 5.5816 13.1736 5.76389 13.0625 5.9375C12.9375 6.11806 12.7743 6.23958 12.5729 6.30208C12.3715 6.36458 12.1696 6.3625 11.9673 6.29583C11.6696 6.19583 11.3611 6.12153 11.0417 6.07292C10.7222 6.02431 10.3854 6 10.0311 6C8.21869 6 6.67708 6.64931 5.40625 7.94792C4.13542 9.24653 3.5 10.7639 3.5 12.5C3.5 13.0278 3.53819 13.4618 3.61458 13.8021C3.69097 14.1424 3.8125 14.5417 3.97917 15H16C16.1806 14.5417 16.309 14.1215 16.3854 13.7396C16.4618 13.3576 16.5 12.9444 16.5 12.5C16.5 12.0556 16.4514 11.6007 16.3542 11.1354C16.2569 10.6701 16.1111 10.2292 15.9167 9.8125C15.8194 9.61806 15.7917 9.41667 15.8333 9.20833C15.875 9 15.9859 8.83035 16.1659 8.6994C16.3331 8.58035 16.5174 8.54514 16.7188 8.59375C16.9201 8.64236 17.0694 8.76389 17.1667 8.95833C17.4444 9.5 17.6528 10.066 17.7917 10.6562C17.9306 11.2465 18 11.8472 18 12.4583C18 13.1667 17.941 13.7847 17.8229 14.3125C17.7049 14.8403 17.5139 15.3264 17.25 15.7708C17.1111 16.0069 16.934 16.1875 16.7188 16.3125C16.5035 16.4375 16.2639 16.5 16 16.5H4C3.73611 16.5 3.49653 16.4375 3.28125 16.3125C3.06597 16.1875 2.88889 16.0069 2.75 15.7708C2.48611 15.3264 2.29514 14.8403 2.17708 14.3125C2.05903 13.7847 2 13.1667 2 12.4583C2 11.3511 2.21181 10.3138 2.63542 9.34663C3.05903 8.37943 3.63194 7.53819 4.35417 6.82292C5.07639 6.10764 5.92666 5.54167 6.90498 5.125C7.88328 4.70833 8.9219 4.5 10.0208 4.5Z" fill="white" fill-opacity="0.6"/>
</g>
</svg>
